<svg width="12" height="12" viewBox="0 0 12 12" fill="none" xmlns="http://www.w3.org/2000/svg">
<path d="M8.97649 3.80001C9.86339 3.80001 10.5824 3.08103 10.5824 2.19412C10.5824 1.30722 9.86339 0.588242 8.97649 0.588242C8.08958 0.588242 7.37061 1.30722 7.37061 2.19412C7.37061 3.08103 8.08958 3.80001 8.97649 3.80001Z" stroke="#ECECEC" stroke-width="0.988235" stroke-linecap="round" stroke-linejoin="round"/>
<path d="M2.5529 7.54706C3.43981 7.54706 4.15879 6.82808 4.15879 5.94118C4.15879 5.05427 3.43981 4.3353 2.5529 4.3353C1.666 4.3353 0.947021 5.05427 0.947021 5.94118C0.947021 6.82808 1.666 7.54706 2.5529 7.54706Z" stroke="#ECECEC" stroke-width="0.988235" stroke-linecap="round" stroke-linejoin="round"/>
<path d="M8.97649 11.2941C9.86339 11.2941 10.5824 10.5751 10.5824 9.68823C10.5824 8.80133 9.86339 8.08235 8.97649 8.08235C8.08958 8.08235 7.37061 8.80133 7.37061 9.68823C7.37061 10.5751 8.08958 11.2941 8.97649 11.2941Z" stroke="#ECECEC" stroke-width="0.988235" stroke-linecap="round" stroke-linejoin="round"/>
<path d="M3.93921 6.74947L7.59527 8.87994" stroke="#ECECEC" stroke-width="0.988235" stroke-linecap="round" stroke-linejoin="round"/>
<path d="M7.58991 3.00241L3.93921 5.13288" stroke="#ECECEC" stroke-width="0.988235" stroke-linecap="round" stroke-linejoin="round"/>
</svg>
